#!OML:ASF X:\für Bonn\!DataBase\2005_08_12_Daniel\c3d\Daniel.ASF
:FULLY-SPECIFIED
:DEGREES
68
root -2.73659 17.2344 -0.19022 13.8302 -79.2543 -38.5939
lowerback 43.5227 -12.0973 -12.2335
upperback 14.8575 -22.5028 -2.14969
thorax 0.261233 -12.9102 10.7532
lowerneck 9.56623 11.9931 -1.41172
upperneck 11.0313 14.855 2.71932
head 1.59834 7.02496 0.81578
rclavicle 7.31528e-014 -3.02153e-014
rhumerus -50.8726 3.43916 -72.7648
rradius 37.1595
rwrist 11.4886
rhand -34.4706 37.6982
rfingers 7.12502
rthumb -7.63386 7.85594
lclavicle 7.31528e-014 -3.02153e-014
lhumerus 37.3984 3.41167 83.8522
lradius 129.172
lwrist 54.4894
lhand -11.8245 -11.9758
lfingers 7.12502
lthumb 14.2261 17.517
rfemur -68.4161 -18.3398 22.174
rtibia 114.661
rfoot 3.58314 8.02312
rtoes -14.2722
lfemur 8.43923 -14.3129 -19.6975
ltibia 32.4221
lfoot -21.3139 11.1465
ltoes 3.61438
69
root -2.75032 17.2394 -0.183865 15.4742 -79.7651 -39.7679
lowerback 42.6248 -12.08 -12.0799
upperback 14.6698 -22.2761 -2.14675
thorax 0.209549 -12.7419 10.5466
lowerneck 9.5733 11.9156 -1.43046
upperneck 11.1607 14.7584 2.45088
head 1.66076 6.97085 0.747545
rclavicle -3.26007e-014 2.06736e-014
rhumerus -50.4027 4.1049 -73.6659
rradius 38.9789
rwrist 10.4788
rhand -34.2358 38.0653
rfingers 7.12502
rthumb -7.40715 8.21497
lclavicle -3.26007e-014 2.06736e-014
lhumerus 36.1717 3.68357 83.6895
lradius 129.073
lwrist 54.2253
lhand -11.8003 -11.995
lfingers 7.12502
lthumb 14.2495 17.4962
rfemur -66.2163 -17.8454 21.4243
rtibia 112.86
rfoot 3.66828 7.54052
rtoes -14.1902
lfemur 8.06847 -14.3577 -19.7789
ltibia 32.5184
lfoot -21.7121 11.6489
ltoes 3.70143
70
root -2.76589 17.2396 -0.179454 17.1207 -80.2748 -40.9556
lowerback 41.7829 -12.0431 -11.961
upperback 14.4312 -22.0441 -2.11659
thorax 0.112685 -12.5662 10.3956
lowerneck 9.56267 11.8392 -1.45781
upperneck 11.3444 14.6603 2.17797
head 1.74341 6.9137 0.682339
rclavicle 1.07344e-013 -1.22451e-013
rhumerus -49.8946 4.78037 -74.5296
rradius 40.7874
rwrist 9.74311
rhand -34.0679 38.2789
rfingers 7.12502
rthumb -7.24515 8.42293
lclavicle 1.07344e-013 -1.22451e-013
lhumerus 34.8358 3.94565 83.5544
lradius 128.978
lwrist 53.9803
lhand -11.7904 -12.077
lfingers 7.12502
lthumb 14.2589 17.4135
rfemur -63.9725 -17.3158 20.7062
rtibia 110.955
rfoot 3.74887 6.90056
rtoes -13.8354
lfemur 7.68669 -14.3768 -19.8645
ltibia 32.648
lfoot -22.1091 12.111
ltoes 3.84498
71
root -2.78241 17.2371 -0.175846 18.7461 -80.7877 -42.1226
lowerback 40.898 -11.9951 -11.8218
upperback 14.2061 -21.788 -2.10399
thorax 0.034058 -12.3794 10.202
lowerneck 9.54609 11.7487 -1.46244
upperneck 11.5198 14.5465 1.92018
head 1.825 6.84977 0.618302
rclavicle -8.34896e-014 4.45278e-014
rhumerus -49.3996 5.43848 -75.433
rradius 42.6753
rwrist 9.15577
rhand -34.0089 38.416
rfingers 7.12502
rthumb -7.18818 8.55813
lclavicle -8.34896e-014 4.45278e-014
lhumerus 33.4717 4.12629 83.3745
lradius 128.913
lwrist 53.7589
lhand -11.8243 -12.1103
lfingers 7.12502
lthumb 14.2263 17.3825
rfemur -61.7271 -16.7797 20.0096
rtibia 108.957
rfoot 3.80179 6.18488
rtoes -13.715
lfemur 7.30678 -14.3951 -19.9779
ltibia 32.7905
lfoot -22.5343 12.5595
ltoes 3.92361
72
root -2.80025 17.2355 -0.174165 20.5577 -81.2929 -43.4837
lowerback 39.968 -11.9392 -11.6444
upperback 13.9987 -21.506 -2.107
thorax -0.0245671 -12.1808 9.95912
lowerneck 9.54468 11.642 -1.41563
upperneck 11.6931 14.4177 1.62032
head 1.91078 6.77916 0.533518
rclavicle 7.79236e-014 -4.6118e-014
rhumerus -48.8849 6.09509 -76.381
rradius 44.592
rwrist 8.65788
rhand -34.179 38.4495
rfingers 7.12502
rthumb -7.35235 8.59722
lclavicle 7.79236e-014 -4.6118e-014
lhumerus 32.0608 4.2334 83.1545
lradius 128.846
lwrist 53.4895
lhand -11.9008 -12.1548
lfingers 7.12502
lthumb 14.1526 17.3432
rfemur -59.4964 -16.2178 19.3787
rtibia 106.876
rfoot 3.83145 5.40407
rtoes -14.1775
lfemur 6.94188 -14.4092 -20.074
ltibia 32.9077
lfoot -22.9204 13.0004
ltoes 3.98924
73
root -2.81812 17.2387 -0.173242 22.2911 -81.7915 -44.7617
lowerback 38.9966 -11.8763 -11.4677
upperback 13.812 -21.2152 -2.11898
thorax -0.0414567 -11.984 9.69112
lowerneck 9.55111 11.5361 -1.36385
upperneck 11.8325 14.2931 1.32243
head 1.98433 6.71162 0.446104
rclavicle -1.98785e-014 9.38264e-014
rhumerus -48.3067 6.83046 -77.3737
rradius 46.5695
rwrist 8.05915
rhand -34.52 38.4278
rfingers 7.12502
rthumb -7.68148 8.58735
lclavicle -1.98785e-014 9.38264e-014
lhumerus 30.6521 4.30172 82.8762
lradius 128.757
lwrist 53.2552
lhand -12.0375 -12.2048
lfingers 7.12502
lthumb 14.0209 17.3023
rfemur -57.306 -15.6743 18.7549
rtibia 104.738
rfoot 3.8371 4.61198
rtoes -14.9857
lfemur 6.60414 -14.4068 -20.19
ltibia 32.9674
lfoot -23.3024 13.4144
ltoes 4.128
74
root -2.83647 17.2446 -0.175014 24.0295 -82.2836 -46.0418
lowerback 37.9255 -11.8087 -11.2941
upperback 13.716 -20.902 -2.17215
thorax -0.0555735 -11.7808 9.43526
lowerneck 9.60046 11.4282 -1.32177
upperneck 11.9456 14.1648 1.02108
head 2.04175 6.64154 0.354903
rclavicle 1.37559e-013 -1.04958e-013
rhumerus -47.7872 7.68974 -78.3797
rradius 48.7098
rwrist 7.30743
rhand -35.0027 38.3723
rfingers 7.12502
rthumb -8.14739 8.54939
lclavicle 1.37559e-013 -1.04958e-013
lhumerus 29.1393 4.31183 82.5288
lradius 128.655
lwrist 52.9837
lhand -12.234 -12.2634
lfingers 7.12502
lthumb 13.8315 17.2567
rfemur -55.1237 -15.1262 18.1547
rtibia 102.523
rfoot 3.8254 3.79609
rtoes -15.7733
lfemur 6.29017 -14.3979 -20.3102
ltibia 32.974
lfoot -23.6541 13.803
ltoes 4.23056
75
root -2.85583 17.2505 -0.178006 25.8075 -82.77 -47.3753
lowerback 36.9737 -11.7067 -11.1442
upperback 13.5118 -20.5788 -2.15646
thorax -0.0671881 -11.5721 9.20101
lowerneck 9.62803 11.312 -1.24138
upperneck 12.0792 14.0321 0.679147
head 2.1154 6.56978 0.247836
rclavicle -7.11649e-014 0
rhumerus -47.196 8.52018 -79.325
rradius 50.7916
rwrist 6.48339
rhand -35.6054 38.4805
rfingers 7.12502
rthumb -8.72899 8.68097
lclavicle -7.11649e-014 0
lhumerus 27.5917 4.24534 82.1391
lradius 128.506
lwrist 52.6656
lhand -12.4844 -12.3462
lfingers 7.12502
lthumb 13.5902 17.1902
rfemur -52.9449 -14.6013 17.5766
rtibia 100.251
rfoot 3.82363 2.98043
rtoes -16.0168
lfemur 6.00704 -14.3702 -20.4338
ltibia 32.942
lfoot -23.9822 14.1582
ltoes 4.3457
76
root -2.87561 17.2534 -0.182697 27.391 -83.274 -48.5147
lowerback 36.0591 -11.5627 -11.0738
upperback 13.3017 -20.237 -2.09966
thorax -0.0532671 -11.3641 9.03925
lowerneck 9.59212 11.194 -1.16067
upperneck 12.2031 13.9069 0.297118
head 2.1992 6.50268 0.131254
rclavicle -3.49861e-014 -8.26944e-014
rhumerus -46.4727 9.29004 -80.1594
rradius 52.7897
rwrist 5.66694
rhand -36.1987 38.7643
rfingers 7.12502
rthumb -9.30154 8.98948
lclavicle -3.49861e-014 -8.26944e-014
lhumerus 26.0425 4.16765 81.756
lradius 128.356
lwrist 52.3018
lhand -12.7227 -12.3252
lfingers 7.12502
lthumb 13.3605 17.2265
rfemur -50.8357 -14.086 16.965
rtibia 97.9698
rfoot 3.89018 2.21216
rtoes -15.6889
lfemur 5.72918 -14.3325 -20.604
ltibia 32.891
lfoot -24.2712 14.5253
ltoes 4.38419
77
root -2.89568 17.2566 -0.188774 29.1769 -83.7575 -49.8677
lowerback 35.194 -11.4141 -10.9709
upperback 13.0634 -19.8827 -2.04047
thorax -0.0904845 -11.1419 8.8786
lowerneck 9.54858 11.0747 -1.02716
upperneck 12.3863 13.7808 -0.0698909
head 2.30672 6.4348 0.0129539
rclavicle -7.27552e-014 2.38542e-014
rhumerus -45.7727 10.0073 -80.9582
rradius 54.7754
rwrist 4.71344
rhand -36.6077 39.161
rfingers 7.12502
rthumb -9.69619 9.40414
lclavicle -7.27552e-014 2.38542e-014
lhumerus 24.4032 4.03148 81.3189
lradius 128.184
lwrist 51.9228
lhand -12.9606 -12.326
lfingers 7.12502
lthumb 13.1312 17.2405
rfemur -48.7924 -13.6045 16.3953
rtibia 95.688
rfoot 4.06838 1.46505
rtoes -14.9528
lfemur 5.46724 -14.2624 -20.7474
ltibia 32.8212
lfoot -24.5421 14.8639
ltoes 4.4384
